<?xml version="1.0" standalone="no"?>
<!DOCTYPE svg PUBLIC "-//W3C//DTD SVG 20010904//EN"
 "http://www.w3.org/TR/2001/REC-SVG-20010904/DTD/svg10.dtd">
<svg version="1.0" xmlns="http://www.w3.org/2000/svg"
 width="263.000000pt" height="263.000000pt" viewBox="0 0 263.000000 263.000000"
 preserveAspectRatio="xMidYMid meet">
<metadata>
Created by potrace 1.14, written by Peter Selinger 2001-2017
</metadata>
<g transform="translate(0.000000,263.000000) scale(0.100000,-0.100000)"
fill="#000000" stroke="none">
<path d="M0 1315 l0 -1315 1315 0 1315 1 0 1314 0 1315 -1315 0 -1315 0 0
-1315z m635 718 c77 -68 317 -300 820 -789 182 -177 344 -333 362 -348 55 -46
98 -58 193 -55 l85 4 0 -155 0 -155 -155 0 c-85 0 -168 4 -184 8 -18 5 -100
77 -215 190 -102 100 -220 214 -261 252 -41 39 -164 156 -273 260 -110 105
-217 202 -239 217 -47 32 -113 44 -168 30 -31 -8 -40 -7 -44 5 -3 8 -6 138 -6
289 l0 274 28 0 c15 0 40 -11 57 -27z m1453 -435 l-3 -463 -48 -3 -48 -3 -217
213 c-502 492 -711 702 -706 710 3 4 234 8 515 8 l509 0 -2 -462z m-1346 -480
c208 -194 356 -330 433 -398 97 -85 185 -170 185 -178 0 -4 -182 -7 -405 -7
l-405 0 0 300 c0 165 -3 330 -7 368 -6 63 -5 67 15 67 12 0 83 -58 184 -152z"/>
</g>
</svg>
