<?xml version="1.0" standalone="no"?>
<!DOCTYPE svg PUBLIC "-//W3C//DTD SVG 20010904//EN"
 "http://www.w3.org/TR/2001/REC-SVG-20010904/DTD/svg10.dtd">
<svg version="1.0" xmlns="http://www.w3.org/2000/svg"
 width="263.000000pt" height="263.000000pt" viewBox="0 0 263.000000 263.000000"
 preserveAspectRatio="xMidYMid meet">
<metadata>
Created by potrace 1.14, written by Peter Selinger 2001-2017
</metadata>
<g transform="translate(0.000000,263.000000) scale(0.100000,-0.100000)"
fill="#000000" stroke="none">
<path d="M0 1315 l0 -1315 1315 0 1315 0 0 1315 0 1315 -1315 0 -1315 0 0
-1315z m663 688 c135 -125 462 -440 707 -679 360 -352 442 -429 483 -457 40
-27 46 -28 140 -25 l97 4 0 -152 0 -152 -104 -7 c-116 -8 -207 0 -251 23 -16
8 -122 105 -235 216 -113 111 -281 273 -374 361 -93 88 -205 195 -250 237
-108 104 -164 131 -253 127 l-68 -4 -3 270 c-1 148 0 275 3 282 10 27 49 11
108 -44z m1425 -397 c1 -323 -1 -453 -9 -462 -17 -21 -72 -17 -106 9 -55 40
-903 880 -903 894 0 11 86 13 508 11 l507 -3 3 -449z m-1465 -383 c28 -27 144
-134 257 -238 113 -105 267 -246 343 -313 75 -68 137 -125 137 -128 0 -2 -182
-4 -405 -4 l-405 0 0 365 c0 247 3 365 10 365 6 0 34 -21 63 -47z"/>
</g>
</svg>
